<svg width="90" height="95" viewBox="0 0 90 95" fill="none" xmlns="http://www.w3.org/2000/svg">
<g clip-path="url(#clip0)">
<path d="M45.0004 4.79199C21.2152 4.79199 1.93359 24.8805 1.93359 49.661C1.93359 60.9362 5.92629 71.239 12.5179 79.1212L26.4155 90.1476C32.0421 92.9562 38.3447 94.5301 45.0004 94.5301C68.7855 94.5301 88.0671 74.4415 88.0671 49.661C88.0671 24.8805 68.7855 4.79199 45.0004 4.79199Z" fill="#FFC839"/>
<path d="M47.7893 77.911L47.681 77.7047C47.0544 76.5118 47.4784 75.0014 48.6234 74.3486L48.7552 74.2735C47.5557 74.9575 46.0371 74.4947 45.3806 73.2452C44.724 71.9956 45.1682 70.4135 46.3676 69.7295C45.1681 70.4135 43.6497 69.9507 42.993 68.701C42.3364 67.4512 42.7806 65.8693 43.98 65.1851C42.7804 65.8691 41.2619 65.4063 40.6053 64.1566C39.9488 62.9071 40.393 61.3249 41.5925 60.6407L44.8316 58.7934L44.3379 57.8537C43.9752 57.1635 43.3459 56.6681 42.6096 56.493C39.9175 55.8533 37.1227 56.9844 35.5511 59.3496C34.1353 61.5399 35.5595 58.8689 31.9708 67.4439C31.7393 68.016 31.3288 68.4896 30.806 68.788L12.5176 79.1226C16.3591 83.7164 21.0832 87.4874 26.4152 90.1489L39.3344 82.8482C39.6886 82.6462 40.0825 82.5315 40.486 82.513L44.4134 82.3334C44.8169 82.3149 45.2108 82.2002 45.565 81.9982L50.7572 79.0369L50.5902 79.0796C49.5318 79.4292 48.3414 78.9616 47.7893 77.911Z" fill="#FCAD6D"/>
<path d="M55.3955 76.4468L42.4991 51.8281L33.4365 54.0031L47.5451 80.9353C48.7348 83.1939 51.4566 84.0201 53.6245 82.7806C55.7922 81.5411 56.5852 78.7054 55.3955 76.4468Z" fill="#3C58A0"/>
<path d="M41.5726 60.0834C40.5736 58.1764 41.5977 55.8028 43.6296 55.3151L44.2478 55.1667L42.4989 51.8281L33.4365 54.0033L47.5451 80.9355C48.7118 83.1505 51.352 83.9865 53.4983 82.8487L41.5726 60.0834Z" fill="#2A428C"/>
<path d="M47.5182 78.0654L47.4099 77.8592C46.7831 76.6662 47.2073 75.1559 48.3523 74.5028L55.0214 70.6994C56.1665 70.0464 57.6162 70.4883 58.243 71.6812L58.3513 71.8874C58.9781 73.0804 58.5539 74.5907 57.4089 75.2438L50.7398 79.0472C49.5947 79.7002 48.1451 79.2583 47.5182 78.0654Z" fill="#F9BA8F"/>
<path d="M45.1102 73.3999C44.4537 72.1502 44.8979 70.568 46.0974 69.884L54.0931 65.3241C55.2927 64.6401 56.8112 65.1029 57.4678 66.3524C58.1243 67.602 57.6801 69.1841 56.4808 69.8683L48.485 74.4282C47.2853 75.1124 45.7668 74.6494 45.1102 73.3999Z" fill="#F9BA8F"/>
<path d="M42.7225 68.8554C42.066 67.6057 42.5102 66.0236 43.7095 65.3396L52.2028 60.496C53.4023 59.812 54.9209 60.2747 55.5774 61.5243C56.2339 62.774 55.7897 64.3561 54.5904 65.0401L46.0972 69.8838C44.8976 70.5678 43.3791 70.105 42.7225 68.8554Z" fill="#F9BA8F"/>
<path d="M52.146 57.5752C51.4895 56.3255 49.9709 55.8627 48.7714 56.5467L41.322 60.795C40.1224 61.479 39.6782 63.0611 40.3349 64.3108C40.9915 65.5606 42.5101 66.0233 43.7096 65.3391L51.1589 61.0909C52.3584 60.4069 52.8026 58.825 52.146 57.5752Z" fill="#F9BA8F"/>
<path d="M31.0879 68.5987C31.1993 70.2204 31.864 72.7292 34.8324 73.3136C36.8064 73.7022 38.8042 71.0888 38.8042 71.0888C41.3027 67.4521 41.315 64.7677 41.1456 63.5985C41.1308 63.4972 41.2619 63.4515 41.3092 63.5412L41.9464 64.7539C42.1695 65.1784 42.4613 65.5383 42.799 65.8286C43.5993 66.4359 44.6948 66.5483 45.6208 66.0203C46.4774 65.5317 46.9701 64.6204 46.9919 63.6714C47.017 62.5799 46.5464 62.1025 44.3385 57.8528C44.1713 57.5348 43.9254 57.2246 43.6174 56.9816C43.6164 56.9808 43.6155 56.9799 43.6146 56.9792C43.3261 56.7521 42.9837 56.5809 42.6104 56.4921C39.9183 55.8524 37.1235 56.9834 35.5519 59.3486C34.1361 61.539 35.5603 58.8679 31.9715 67.4429C31.7833 67.9077 31.4758 68.3053 31.0879 68.5987Z" fill="#FCAD6D"/>
<path d="M43.8841 62.3961L45.02 64.558C45.3192 65.1274 45.9787 65.3664 46.5454 65.1393C46.8246 64.7041 46.9798 64.1939 46.9917 63.672C47.0141 62.7024 46.6256 62.2521 45.4775 60.0215L44.3742 60.6507C43.7786 60.9903 43.5582 61.7758 43.8841 62.3961Z" fill="#F9DFCD"/>
<path d="M35.8056 72.3667C35.6388 72.046 35.6988 71.6367 35.9716 71.3838C40.5037 67.1826 39.8326 62.5131 39.8254 62.4664C39.7567 62.0284 40.0421 61.6154 40.4626 61.5438C40.8833 61.4724 41.2798 61.7696 41.348 62.2077C41.3833 62.4338 42.1561 67.8023 36.9973 72.5846C36.6789 72.8796 36.1913 72.85 35.9081 72.5185C35.8675 72.4711 35.8334 72.4202 35.8056 72.3667Z" fill="#FD995B"/>
<path d="M29.1612 53.2677L24.087 30.3169C24.0532 30.1638 24.0379 30.0111 24.037 29.8604C18.0475 31.6278 14.381 38.0014 15.7938 44.3914C17.2065 50.7814 23.1801 54.8418 29.308 53.701C29.2456 53.5651 29.1952 53.4208 29.1612 53.2677Z" fill="#E9EFFF"/>
<path d="M17.0293 47.6999C19.4366 52.1135 24.3212 54.6302 29.3083 53.702C29.2457 53.5661 29.1953 53.4218 29.1614 53.2687L27.6194 46.2947C27.4846 46.2218 27.3454 46.1368 27.2019 46.0381C27.2023 46.0381 22.7849 50.8978 17.0293 47.6999Z" fill="#D3DCFB"/>
<path d="M57.4884 14.4678C52.8715 20.1037 46.8148 24.2289 40.0488 26.3859C40.0573 26.4176 40.0675 26.4483 40.0747 26.4807L45.1489 49.4315C45.1562 49.4639 45.1598 49.4962 45.1656 49.5286C52.1556 48.3844 59.334 49.3332 65.8523 52.2969L76.7683 57.2599C76.1265 54.3568 65.8623 7.93239 65.2203 5.0293L57.4884 14.4678Z" fill="#E9EFFF"/>
<path d="M60.7794 10.4504L66.2607 33.5334C67.1544 37.2968 64.2654 40.8933 60.5545 40.6036C56.1693 40.2611 50.2821 40.3851 43.8977 42.1408C43.8977 42.1408 43.8198 42.3437 43.6377 42.5968L45.1489 49.4315C45.1561 49.4639 45.16 49.4962 45.1656 49.5286C52.1555 48.3844 59.3339 49.3332 65.8522 52.2969L76.7682 57.2599C76.1265 54.3568 65.8622 7.93239 65.2203 5.0293L60.7794 10.4504Z" fill="#D3DCFB"/>
<path d="M82.2591 24.6157C77.0182 24.918 73.5732 22.4131 73.5732 22.4131C73.9854 24.2778 76.5647 35.9435 76.9797 37.8204C76.9797 37.8204 79.0256 33.9978 83.8654 31.8809C84.6429 31.5408 85.0809 30.6762 84.8916 29.8201L84.0473 26.0013C83.858 25.1451 83.1011 24.5671 82.2591 24.6157Z" fill="#E9EFFF"/>
<path d="M84.395 27.5744C83.4845 27.9579 82.6784 28.363 81.9796 28.7615C80.1125 29.8261 77.7872 28.7387 77.3095 26.5776C77.0992 25.627 76.8915 24.6871 76.7174 23.9002C74.729 23.2519 73.5732 22.4131 73.5732 22.4131C73.9854 24.2778 76.5647 35.9435 76.9797 37.8204C76.9797 37.8204 79.0256 33.9978 83.8654 31.8809C84.6431 31.5408 85.0809 30.6762 84.8916 29.8201L84.395 27.5744Z" fill="#D3DCFB"/>
<path d="M79.7245 60.4339C78.4472 60.7405 77.1735 59.9103 76.8793 58.5796L64.7662 3.79258C64.4719 2.4619 65.2687 1.13489 66.546 0.828315C67.8232 0.521743 69.0969 1.3519 69.3912 2.68258L81.5042 57.4696C81.7985 58.8003 81.0017 60.1273 79.7245 60.4339Z" fill="#FF4155"/>
<path d="M81.5046 57.4698L76.7209 35.833C76.5344 36.8459 75.795 37.6997 74.7683 37.9462C73.7152 38.199 72.6653 37.7393 72.0801 36.8714L76.8796 58.5796C77.1739 59.9103 78.4476 60.7404 79.7248 60.4339C81.002 60.1275 81.7988 58.8003 81.5046 57.4698Z" fill="#E80054"/>
<path d="M38.0223 24.8368L25.2433 27.9036C24.1681 28.1616 23.4971 29.279 23.7448 30.3992L28.8191 53.35C29.0667 54.4702 30.1392 55.1691 31.2144 54.9111L43.9934 51.8442C45.0686 51.5862 45.7396 50.4689 45.4917 49.3486L40.4175 26.3978C40.17 25.2778 39.0975 24.5787 38.0223 24.8368Z" fill="#FF4155"/>
<path d="M40.6617 43.3808L30.6561 45.7821C30.6561 45.7821 29.4627 47.5932 27.2021 46.0376L28.819 53.3505C29.0667 54.4707 30.1391 55.1696 31.2144 54.9115L43.9933 51.8447C45.0685 51.5867 45.7393 50.4694 45.4917 49.3491L43.8978 42.1406C43.8978 42.1406 43.1081 44.2031 40.6617 43.3808Z" fill="#E80054"/>
<path d="M31.6896 28.0068C31.0893 28.0068 30.5467 27.5767 30.4061 26.9414L29.533 22.992C29.3695 22.2528 29.8123 21.5154 30.5217 21.3452C31.231 21.174 31.9391 21.6362 32.1024 22.3754L32.9755 26.3247C33.1389 27.0639 32.6962 27.8014 31.9867 27.9715C31.8872 27.9953 31.7875 28.0068 31.6896 28.0068Z" fill="#BEC8F7"/>
<path d="M28.8976 24.2328C28.2973 24.2328 27.7546 23.8026 27.614 23.1673C27.4505 22.4282 27.8933 21.6907 28.6028 21.5206L32.3209 20.6283C33.0306 20.4575 33.7381 20.9191 33.9015 21.6585C34.065 22.3976 33.6222 23.1351 32.9128 23.3052L29.1946 24.1975C29.0952 24.2215 28.9957 24.2328 28.8976 24.2328Z" fill="#E9EFFF"/>
<path d="M27.5339 31.6612C27.3705 30.922 27.8133 30.1846 28.5227 30.0144L35.959 28.2299C36.6684 28.0589 37.3761 28.5209 37.5396 29.2601C37.7031 29.9992 37.2603 30.7367 36.5508 30.9069L29.1146 32.6913C28.4067 32.8617 27.6976 32.4016 27.5339 31.6612Z" fill="#CC0053"/>
<path d="M28.574 36.368C28.4105 35.6289 28.8533 34.8914 29.5628 34.7212L36.999 32.9367C37.7085 32.7664 38.4162 33.2277 38.5796 33.9669C38.7431 34.706 38.3003 35.4435 37.5909 35.6137L30.1546 37.3982C29.4469 37.5685 28.7376 37.1084 28.574 36.368Z" fill="#CC0053"/>
<path d="M29.615 41.0752C29.4515 40.3361 29.8941 39.5986 30.6038 39.4284L38.04 37.6438C38.7497 37.4734 39.4572 37.9348 39.6207 38.6739C39.7841 39.413 39.3415 40.1505 38.6319 40.3207L31.1956 42.1053C30.4879 42.2757 29.7788 41.8156 29.615 41.0752Z" fill="#CC0053"/>
<path d="M30.656 45.7823C30.4925 45.0432 30.9352 44.3057 31.6448 44.1356L39.081 42.3509C39.7907 42.1802 40.4984 42.6419 40.6617 43.3811C40.8251 44.1202 40.3825 44.8577 39.6729 45.0278L32.2366 46.8125C31.529 46.9828 30.8197 46.523 30.656 45.7823Z" fill="#CC0053"/>
<path d="M31.697 50.4893C31.5336 49.7502 31.9763 49.0127 32.6858 48.8426L40.1221 47.0581C40.8312 46.887 41.5394 47.3489 41.7027 48.0882C41.8662 48.8274 41.4234 49.5649 40.7139 49.735L33.2777 51.5195C32.57 51.6898 31.8607 51.23 31.697 50.4893Z" fill="#CC0053"/>
<path d="M39.3344 82.8484C27.3607 81.4425 31.0876 68.6002 31.0876 68.5996C30.9976 68.6677 30.9045 68.732 30.806 68.7882L12.5176 79.1229C16.3591 83.7167 21.0832 87.4877 26.4154 90.1492L39.3344 82.8484Z" fill="#FD995B"/>
</g>
<defs>
<clipPath id="clip0">
<rect width="90" height="93.7664" fill="white" transform="translate(0 0.764648)"/>
</clipPath>
</defs>
</svg>
